<svg xmlns="http://www.w3.org/2000/svg" xmlns:xlink="http://www.w3.org/1999/xlink" width="300" zoomAndPan="magnify" viewBox="0 0 224.87999 225" height="300" preserveAspectRatio="xMidYMid meet" version="1.0"><defs><clipPath id="4fc03aaa83"><path d="M 13 9.054688 L 213 9.054688 L 213 159 L 13 159 Z M 13 9.054688 " clip-rule="nonzero"/></clipPath><clipPath id="df530181d6"><path d="M 9 9.054688 L 217 9.054688 L 217 163 L 9 163 Z M 9 9.054688 " clip-rule="nonzero"/></clipPath><clipPath id="da25f25f61"><path d="M 224.375 56.335938 L 224.761719 56.335938 L 224.761719 56.898438 L 224.375 56.898438 Z M 224.375 56.335938 " clip-rule="nonzero"/></clipPath><clipPath id="5929e4b6e3"><path d="M 0 56.617188 L 224.761719 56.617188 L 224.761719 215.761719 L 0 215.761719 Z M 0 56.617188 " clip-rule="nonzero"/></clipPath><clipPath id="704ac8880e"><path d="M 0 52.679688 L 224.761719 52.679688 L 224.761719 215.890625 L 0 215.890625 Z M 0 52.679688 " clip-rule="nonzero"/></clipPath></defs><g clip-path="url(#4fc03aaa83)"><path fill="#5271ff" d="M 30.792969 136.199219 C 36.773438 132.519531 41.5 127.160156 46.128906 121.878906 C 59.804688 106.285156 73.476562 90.691406 87.152344 75.097656 C 91.761719 69.84375 99.039062 61.992188 105.84375 60.410156 C 114.960938 58.289062 121.832031 62.375 126.851562 74.808594 C 132.324219 88.363281 135.648438 145.066406 139.21875 148.75 C 140.929688 150.519531 142.546875 151.945312 144.664062 152.324219 C 139.695312 156.917969 132.050781 156.8125 132.050781 156.8125 C 143.828125 161.859375 149.800781 152.972656 154.054688 148.972656 C 166.625 137.136719 194.464844 97.015625 212.113281 72.996094 C 196.601562 35.570312 159.722656 9.242188 116.6875 9.242188 C 59.660156 9.242188 13.433594 55.472656 13.433594 112.496094 C 13.433594 122.160156 14.765625 131.507812 17.246094 140.378906 C 21.960938 140.332031 26.738281 138.695312 30.792969 136.199219 " fill-opacity="1" fill-rule="nonzero"/></g><g clip-path="url(#df530181d6)"><path strokeLinecap="butt" transform="matrix(0.028117, 0, 0, -0.028117, 0, 215.891929)" fill="none" strokeLinejoin="miter" d="M 1095.171593 2834.322105 C 1307.870782 2965.19254 1475.973995 3155.802133 1640.604001 3343.633161 C 2126.991892 3898.234836 2613.240855 4452.83651 3099.628746 5007.438184 C 3263.564111 5194.296714 3522.387488 5473.542547 3764.400543 5529.808499 C 4088.659137 5605.246552 4333.033973 5459.927577 4511.556807 5017.718877 C 4706.19532 4535.637762 4824.423282 2518.95492 4951.403726 2387.945557 C 5012.25431 2325.011048 5069.770616 2274.302228 5145.069741 2260.826185 C 4968.352975 2097.446534 4696.470341 2101.197597 4696.470341 2101.197597 C 5115.33909 1921.702266 5327.760423 2237.764091 5479.053315 2380.026645 C 5926.124504 2800.979319 6916.266321 4227.911633 7543.944268 5082.181596 C 6992.260087 6413.2534 5680.638242 7349.629975 4150.065435 7349.629975 C 2121.851546 7349.629975 477.774338 5705.413839 477.774338 3677.338878 C 477.774338 3333.630326 525.14888 3001.174963 613.368335 2685.66885 C 781.054763 2687.33599 950.964043 2745.546937 1095.171593 2834.322105 Z M 1095.171593 2834.322105 " stroke="#ffffff" strokeWidth="10" stroke-opacity="1" stroke-miterlimit="10"/></g><g clip-path="url(#da25f25f61)"><path strokeLinecap="butt" transform="matrix(0.028117, 0, 0, -0.028117, 0, 215.891943)" fill="none" strokeLinejoin="miter" d="M 7993.515143 5661.790148 Z M 7993.515143 5661.790148 " stroke="#ffffff" strokeWidth="10" stroke-opacity="1" stroke-miterlimit="10"/></g><path fill="#5271ff" d="M 0.949219 128.515625 C 1.03125 128.878906 1.132812 129.234375 1.246094 129.585938 C 1.144531 129.234375 1.042969 128.878906 0.949219 128.515625 " fill-opacity="1" fill-rule="nonzero"/><path strokeLinecap="butt" transform="matrix(0.028117, 0, 0, -0.028117, 0, 215.891929)" fill="none" strokeLinejoin="miter" d="M 33.759571 3107.594022 C 36.677065 3094.673692 40.2892 3082.031219 44.31812 3069.527675 C 40.705985 3082.031219 37.093849 3094.673692 33.759571 3107.594022 Z M 33.759571 3107.594022 " stroke="#ffffff" strokeWidth="10" stroke-opacity="1" stroke-miterlimit="10"/><path fill="#5271ff" d="M 0.949219 128.515625 C 0.949219 128.515625 0.902344 128.710938 0.832031 129.066406 C 0.871094 128.882812 0.90625 128.699219 0.949219 128.515625 " fill-opacity="1" fill-rule="nonzero"/><path strokeLinecap="butt" transform="matrix(0.028117, 0, 0, -0.028117, 0, 215.891929)" fill="none" strokeLinejoin="miter" d="M 33.759571 3107.594022 C 33.759571 3107.594022 32.092432 3100.647608 29.591723 3088.005135 C 30.981005 3094.534764 32.23136 3101.064393 33.759571 3107.594022 Z M 33.759571 3107.594022 " stroke="#ffffff" strokeWidth="10" stroke-opacity="1" stroke-miterlimit="10"/><g clip-path="url(#5929e4b6e3)"><path fill="#5271ff" d="M 224.753906 56.699219 C 213.683594 87.960938 174.273438 162.210938 154.863281 172.847656 C 148.859375 176.136719 141.398438 177.355469 135.09375 174.679688 C 124.273438 170.089844 120.929688 156.660156 118.96875 145.070312 C 116.515625 130.578125 114.0625 116.078125 111.613281 101.582031 C 110.871094 97.214844 110.097656 92.738281 107.890625 88.894531 C 105.6875 85.050781 101.722656 81.902344 97.289062 81.941406 C 92.859375 81.980469 88.539062 86.175781 89.433594 90.515625 C 92.074219 87.144531 97.113281 85.90625 101.015625 87.675781 C 88.136719 102.421875 75.257812 117.167969 62.375 131.910156 C 56.160156 139.03125 49.800781 146.265625 41.710938 151.152344 C 33.617188 156.035156 23.359375 158.277344 14.605469 154.71875 C 7.210938 151.714844 1.660156 144.582031 0.558594 136.679688 C 0.296875 134.835938 0.292969 132.964844 0.503906 131.121094 C -0.550781 139.121094 -1.230469 162.910156 27.535156 164.617188 C 45.457031 195.207031 78.675781 215.75 116.6875 215.75 C 173.714844 215.75 219.941406 169.523438 219.941406 112.496094 C 219.941406 104.167969 218.953125 96.070312 217.09375 88.3125 L 224.753906 56.699219 " fill-opacity="1" fill-rule="nonzero"/></g><g clip-path="url(#704ac8880e)"><path strokeLinecap="butt" transform="matrix(0.028117, 0, 0, -0.028117, 0, 215.891943)" fill="none" strokeLinejoin="miter" d="M 7993.515143 5661.790148 C 7599.792462 4549.947304 6198.145273 1909.198988 5507.810763 1530.897344 C 5294.278031 1413.919751 5028.92506 1370.574135 4804.694852 1465.739991 C 4419.863579 1628.980693 4300.940991 2106.616042 4231.199006 2518.816182 C 4143.95206 3034.240016 4056.705115 3549.941708 3969.597097 4065.504471 C 3943.200728 4220.826262 3915.692933 4380.038045 3837.198468 4516.743451 C 3758.842931 4653.448856 3617.83075 4765.425031 3460.147178 4764.035749 C 3302.602534 4762.646466 3148.947881 4613.437518 3180.762452 4459.088224 C 3274.677954 4578.98331 3453.895406 4623.023567 3592.684735 4560.089067 C 3134.638271 4035.634895 2676.591806 3511.180724 2218.406413 2986.865481 C 1997.371556 2733.599267 1771.196353 2476.304135 1483.475932 2302.504885 C 1195.616583 2128.844563 830.790979 2049.099743 519.452754 2175.663386 C 256.461563 2282.499216 59.044509 2536.182214 19.866741 2817.234078 C 10.558548 2882.808216 10.419619 2949.354851 17.921745 3014.928989 C -19.588884 2730.403917 -43.762401 1884.33083 979.305286 1823.619182 C 1616.708131 735.671998 2798.154031 5.048293 4150.064904 5.048293 C 6178.278533 5.048293 7822.35553 1649.125291 7822.35553 3677.33892 C 7822.35553 3973.533964 7787.206681 4261.532242 7721.076831 4537.443761 Z M 7993.515143 5661.790148 " stroke="#ffffff" strokeWidth="10" stroke-opacity="1" stroke-miterlimit="10"/></g></svg>